<svg aria-hidden="true" style="position: absolute; width: 0; height: 0; overflow: hidden;" version="1.1" xmlns="http://www.w3.org/2000/svg" xmlns:xlink="http://www.w3.org/1999/xlink">
<defs>
<symbol id="icon-android" viewBox="0 0 32 32">
<path d="M10.323 1.617c-0.289 0.007-0.521 0.243-0.521 0.533 0 0.116 0.037 0.223 0.099 0.31l-0.001-0.002 1.577 2.279c-1.514 1.16-2.575 2.884-2.858 4.862h14.763c-0.284-1.978-1.344-3.702-2.858-4.862l1.577-2.279c0.061-0.086 0.098-0.193 0.098-0.308 0-0.295-0.239-0.533-0.533-0.533-0.002 0-0.003 0-0.005 0h0c-0.182 0.002-0.341 0.094-0.436 0.234l-0.001 0.002-1.59 2.3c-1.075-0.603-2.312-0.952-3.633-0.952s-2.558 0.35-3.633 0.952l-1.59-2.3c-0.097-0.143-0.259-0.236-0.442-0.236-0.004 0-0.008 0-0.012 0h0.001zM12.8 5.333c0.589 0 1.067 0.478 1.067 1.067s-0.478 1.067-1.067 1.067c-0.589 0-1.067-0.478-1.067-1.067s0.478-1.067 1.067-1.067zM19.2 5.333c0.589 0 1.067 0.478 1.067 1.067s-0.478 1.067-1.067 1.067c-0.589 0-1.067-0.478-1.067-1.067s0.478-1.067 1.067-1.067zM5.333 11.733c-0.589 0-1.067 0.478-1.067 1.067v8.533c0 0.589 0.478 1.067 1.067 1.067s1.067-0.478 1.067-1.067v-8.533c0-0.589-0.478-1.067-1.067-1.067zM8.533 11.733v10.667c0 1.179 0.955 2.133 2.133 2.133v3.733c0 0.883 0.717 1.6 1.6 1.6s1.6-0.717 1.6-1.6v-3.733h4.267v3.733c0 0.883 0.717 1.6 1.6 1.6s1.6-0.717 1.6-1.6v-3.733c1.179 0 2.133-0.955 2.133-2.133v-10.667h-14.933zM26.667 11.733c-0.589 0-1.067 0.478-1.067 1.067v8.533c0 0.589 0.478 1.067 1.067 1.067s1.067-0.478 1.067-1.067v-8.533c0-0.589-0.478-1.067-1.067-1.067z"></path>
</symbol>
<symbol id="icon-heart" viewBox="0 0 32 32">
<path d="M16 28.72c-0.002 0-0.005 0-0.007 0-0.829 0-1.58-0.336-2.123-0.88l-10.3-10.3c-1.558-1.575-2.521-3.741-2.521-6.133 0-0.041 0-0.083 0.001-0.124l-0 0.006c0.034-4.426 3.629-8 8.060-8 0.028 0 0.056 0 0.085 0l-0.004-0c0.024-0 0.053-0 0.081-0 2.24 0 4.267 0.914 5.728 2.39l1.001 1.001 0.82-0.82c1.526-1.565 3.654-2.535 6.010-2.535 1.879 0 3.614 0.618 5.012 1.661l-0.022-0.016c1.964 1.523 3.216 3.884 3.216 6.536 0 2.273-0.919 4.332-2.407 5.824l-10.5 10.51c-0.543 0.544-1.294 0.88-2.123 0.88-0.003 0-0.005 0-0.008 0h0zM9.15 5.28c-0.002 0-0.004 0-0.006 0-1.654 0-3.154 0.656-4.255 1.722l0.002-0.002c-1.135 1.093-1.84 2.626-1.84 4.324 0 0.002 0 0.004 0 0.007v-0c-0 0.020-0 0.043-0 0.066 0 1.847 0.745 3.519 1.951 4.734l10.3 10.3c0.181 0.183 0.432 0.296 0.71 0.296s0.529-0.113 0.71-0.296l10.51-10.52c1.104-1.126 1.785-2.67 1.785-4.373 0-0.15-0.005-0.299-0.016-0.447l0.001 0.020c-0.115-1.86-1.036-3.483-2.415-4.539l-0.015-0.011c-1.043-0.776-2.357-1.243-3.78-1.243-1.802 0-3.429 0.748-4.588 1.951l-0.002 0.002-1.49 1.53c-0.181 0.183-0.432 0.296-0.71 0.296s-0.529-0.113-0.71-0.296l-1.7-1.7c-1.13-1.12-2.683-1.814-4.399-1.82h-0.001z"></path>
</symbol>
<symbol id="icon-user" viewBox="0 0 32 32">
<path d="M16.006 16.625c3.444-0.003 6.234-2.795 6.234-6.239 0-3.446-2.793-6.239-6.239-6.239s-6.239 2.793-6.239 6.239c0 1.724 0.699 3.284 1.829 4.413l0 0c1.127 1.128 2.684 1.826 4.405 1.826 0.004 0 0.008 0 0.012 0h-0.001zM12.592 6.973c0.874-0.874 2.081-1.414 3.414-1.414 2.666 0 4.828 2.161 4.828 4.827s-2.161 4.828-4.828 4.828c-2.666 0-4.828-2.161-4.828-4.828 0-0 0-0 0-0v0c0-0.002 0-0.004 0-0.006 0-1.331 0.54-2.536 1.414-3.407l0-0z"></path>
<path d="M16.006 17.614c-5.287 0-9.589 4.301-9.589 9.589 0 0.391 0.317 0.709 0.709 0.709v0h17.761c0.391 0 0.709-0.317 0.709-0.709v0c0-5.288-4.302-9.589-9.589-9.589zM7.864 26.494c0.36-4.175 3.875-7.463 8.141-7.463s7.781 3.288 8.141 7.462z"></path>
</symbol>
</defs>
</svg>
