<svg xmlns="http://www.w3.org/2000/svg"  viewBox="0 0 24 24" width="72px" height="72px"><path d="M 12 3 C 10.292643 3 8.6974788 3.3905775 7.2617188 4.0644531 C 6.7468298 3.7380647 6.2231074 3.4152054 5.7207031 3.2070312 A 1.0001 1.0001 0 0 0 5.71875 3.2050781 C 3.9772571 2.4844065 2 3.8156405 2 5.6972656 L 2 6.828125 C 2 7.88823 2.205621 8.8900891 2.453125 9.8144531 C 2.1833967 10.791398 2 11.835885 2 13 C 2 13.519518 2.0557566 14.008763 2.1367188 14.482422 C 1.1907532 14.780749 0.55273437 15.105469 0.55273438 15.105469 A 1.0001161 1.0001161 0 1 0 1.4472656 16.894531 C 1.4472656 16.894531 1.9855164 16.647756 2.7285156 16.412109 C 2.9451033 16.876449 3.2066455 17.304082 3.5078125 17.697266 C 2.9201066 17.922952 2.5585938 18.103516 2.5585938 18.103516 A 1.0001 1.0001 0 1 0 3.4414062 19.896484 C 3.4414062 19.896484 4.1494375 19.553454 5.1523438 19.25 C 7.01054 20.500022 9.4184475 21 12 21 C 14.581552 21 16.98946 20.500022 18.847656 19.25 C 19.850563 19.553454 20.558594 19.896484 20.558594 19.896484 A 1.0001 1.0001 0 1 0 21.441406 18.103516 C 21.441406 18.103516 21.079893 17.922952 20.492188 17.697266 C 20.793354 17.304082 21.054897 16.876449 21.271484 16.412109 C 22.013699 16.647618 22.552734 16.894531 22.552734 16.894531 A 1.0001163 1.0001163 0 1 0 23.447266 15.105469 C 23.447266 15.105469 22.811154 14.778789 21.865234 14.480469 C 21.945949 14.007476 22 13.518707 22 13 C 22 11.835885 21.816603 10.791398 21.546875 9.8144531 C 21.794379 8.8900891 22 7.88823 22 6.828125 L 22 5.6972656 C 22 3.8152015 20.022271 2.4846018 18.28125 3.2050781 A 1.0001 1.0001 0 0 0 18.279297 3.2070312 C 17.77694 3.4152085 17.25317 3.7380647 16.738281 4.0644531 C 15.302521 3.3905775 13.707357 3 12 3 z M 4.6015625 4.9960938 C 4.7139061 4.9865686 4.8334514 5.0043554 4.9550781 5.0546875 C 5.5100528 5.2846444 6.0901864 5.5870669 6.5839844 5.9550781 A 1.0001 1.0001 0 0 0 7.6621094 6.03125 C 8.891663 5.35786 10.371479 5 12 5 C 13.628521 5 15.108337 5.35786 16.337891 6.03125 A 1.0001 1.0001 0 0 0 17.416016 5.9550781 C 17.909814 5.587067 18.489947 5.2846444 19.044922 5.0546875 C 19.531901 4.8531638 20 5.1673297 20 5.6972656 L 20 6.828125 C 20 7.7351477 19.830274 8.6717001 19.585938 9.5273438 A 1.0001 1.0001 0 0 0 19.589844 10.09375 C 19.850227 10.944674 20 11.906139 20 13 C 20 13.379511 19.967923 13.725115 19.921875 14.056641 C 19.621096 14.022138 19.313273 14 19 14 A 1.0001 1.0001 0 1 0 19 16 C 19.086418 16 19.174415 16.011065 19.261719 16.015625 C 19.024506 16.410945 18.736228 16.761183 18.396484 17.070312 C 18.328038 17.055051 18.270811 17.033852 18.201172 17.019531 A 1.0001 1.0001 0 0 0 18.003906 16.998047 A 1.0001 1.0001 0 0 0 16.986328 18.013672 C 15.659533 18.664044 13.933283 19 12 19 C 10.069749 19 8.3455177 18.665927 7.0195312 18.017578 A 1.0001 1.0001 0 0 0 5.9667969 16.998047 A 1.0001 1.0001 0 0 0 5.7988281 17.019531 C 5.7291889 17.033852 5.6719624 17.055051 5.6035156 17.070312 C 5.263772 16.761183 4.9754936 16.410945 4.7382812 16.015625 C 4.8255849 16.011065 4.9135825 16 5 16 A 1.0001 1.0001 0 1 0 5 14 C 4.6867267 14 4.3789036 14.022138 4.078125 14.056641 C 4.0320768 13.725115 4 13.379511 4 13 C 4 11.906139 4.149779 10.944674 4.4101562 10.09375 A 1.0001 1.0001 0 0 0 4.4140625 9.5273438 C 4.1697219 8.6717001 4 7.7351477 4 6.828125 L 4 5.6972656 C 4 5.3009845 4.2645317 5.0246692 4.6015625 4.9960938 z M 8.5 11 A 1.5 2 0 0 0 8.5 15 A 1.5 2 0 0 0 8.5 11 z M 15.5 11 A 1.5 2 0 0 0 15.5 15 A 1.5 2 0 0 0 15.5 11 z M 12 15 A 1.5 1 0 0 0 12 17 A 1.5 1 0 0 0 12 15 z"/></svg>